<svg xmlns="http://www.w3.org/2000/svg" viewBox="0 0 32 32"><path d="M 9 4 L 9 5 L 5 5 L 5 27 L 15 27 L 15 25 L 7 25 L 7 11 L 25 11 L 25 13.191406 L 25.376953 13.548828 C 25.850953 13.997828 26.477 14.65525 27 15.40625 L 27 5 L 23 5 L 23 4 L 21 4 L 21 5 L 11 5 L 11 4 L 9 4 z M 7 7 L 9 7 L 9 8 L 11 8 L 11 7 L 21 7 L 21 8 L 23 8 L 23 7 L 25 7 L 25 9 L 7 9 L 7 7 z M 13 13 L 13 15 L 15 15 L 15 13 L 13 13 z M 17 13 L 17 15 L 19 15 L 19 13 L 17 13 z M 24 15 C 24 15 22 16.895 22 18 C 22 18.738946 22.404366 19.376387 23 19.722656 L 23 21 L 19.992188 21 C 18.351678 21 16.998148 22.34732 16.992188 23.988281 L 16.992188 23.990234 L 16.998047 30 L 16 30 L 16 32 L 32 32 L 32 30 L 31 30 L 31 24 C 31 22.35503 29.64497 21 28 21 L 25 21 L 25 19.722656 C 25.595634 19.376387 26 18.738946 26 18 C 26 16.895 24 15 24 15 z M 9 17 L 9 19 L 11 19 L 11 17 L 9 17 z M 13 17 L 13 19 L 15 19 L 15 17 L 13 17 z M 17 17 L 17 19 L 19 19 L 19 17 L 17 17 z M 9 21 L 9 23 L 11 23 L 11 21 L 9 21 z M 13 21 L 13 23 L 15 23 L 15 21 L 13 21 z M 19.992188 23 L 28 23 C 28.56503 23 29 23.43497 29 24 L 29 25 C 29 25.56503 28.56503 26 28 26 C 27.43497 26 27 25.56503 27 25 L 25 25 C 25 25.56503 24.56503 26 24 26 C 23.43497 26 23 25.56503 23 25 L 21 25 C 21 25.56503 20.56503 26 20 26 C 19.43497 26 19 25.56503 19 25 L 18.994141 25 L 18.992188 23.996094 C 18.994214 23.435049 19.430697 23 19.992188 23 z M 22 27.166016 C 22.535366 27.65838 23.223035 28 24 28 C 24.776965 28 25.464634 27.65838 26 27.166016 C 26.535366 27.65838 27.223035 28 28 28 C 28.351843 28 28.685108 27.92606 29 27.8125 L 29 30 L 18.998047 30 L 18.996094 27.8125 C 19.311974 27.926863 19.646855 28 20 28 C 20.776965 28 21.464634 27.65838 22 27.166016 z"></path></svg>