<svg xmlns="http://www.w3.org/2000/svg" viewBox="0 0 48 48"><path d="M 27.560547 3 A 1.50015 1.50015 0 0 0 27.410156 3.0019531 A 1.50015 1.50015 0 0 0 26.728516 3.2128906 L 18.185547 8.3417969 C 16.832537 9.1535957 16 10.621033 16 12.199219 L 16 15.650391 L 15.271484 15.212891 A 1.50015 1.50015 0 0 0 14.410156 15.001953 A 1.50015 1.50015 0 0 0 13.728516 15.212891 L 5.1855469 20.341797 C 3.8325367 21.153596 3 22.621033 3 24.199219 L 3 43.5 A 1.50015 1.50015 0 1 0 6 43.5 L 6 24.199219 C 6 23.669887 6.2742573 23.186416 6.7285156 22.914062 L 14.5 18.25 L 22.271484 22.912109 C 22.725045 23.184045 23 23.669432 23 24.197266 L 23 30.5 L 23 43.5 A 1.50015 1.50015 0 1 0 26 43.5 L 26 30.5 C 26 29.101774 27.101774 28 28.5 28 L 37.253906 28 A 1.50015 1.50015 0 0 0 37.740234 28 L 40.5 28 C 41.898226 28 43 29.101774 43 30.5 L 43 43.5 A 1.50015 1.50015 0 1 0 46 43.5 L 46 30.5 C 46 27.480226 43.519774 25 40.5 25 L 39 25 L 39 12.197266 C 39 10.619099 38.168893 9.1519082 36.814453 8.3398438 L 28.271484 3.2128906 A 1.50015 1.50015 0 0 0 27.560547 3 z M 27.5 6.25 L 35.271484 10.912109 C 35.725045 11.184045 36 11.669432 36 12.197266 L 36 25 L 28.5 25 C 27.58663 25 26.76095 25.283492 26 25.683594 L 26 24.197266 C 26 22.619099 25.168893 21.151908 23.814453 20.339844 L 19 17.451172 L 19 12.199219 C 19 11.669887 19.274257 11.186417 19.728516 10.914062 L 27.5 6.25 z M 23 12 C 22.448 12 22 12.448 22 13 L 22 15 C 22 15.552 22.448 16 23 16 L 25 16 C 25.552 16 26 15.552 26 15 L 26 13 C 26 12.448 25.552 12 25 12 L 23 12 z M 30 12 C 29.448 12 29 12.448 29 13 L 29 15 C 29 15.552 29.448 16 30 16 L 32 16 C 32.552 16 33 15.552 33 15 L 33 13 C 33 12.448 32.552 12 32 12 L 30 12 z M 30 19 C 29.448 19 29 19.448 29 20 L 29 22 C 29 22.552 29.448 23 30 23 L 32 23 C 32.552 23 33 22.552 33 22 L 33 20 C 33 19.448 32.552 19 32 19 L 30 19 z M 10 24 C 9.448 24 9 24.448 9 25 L 9 27 C 9 27.552 9.448 28 10 28 L 12 28 C 12.552 28 13 27.552 13 27 L 13 25 C 13 24.448 12.552 24 12 24 L 10 24 z M 17 24 C 16.448 24 16 24.448 16 25 L 16 27 C 16 27.552 16.448 28 17 28 L 19 28 C 19.552 28 20 27.552 20 27 L 20 25 C 20 24.448 19.552 24 19 24 L 17 24 z M 10 31 C 9.448 31 9 31.448 9 32 L 9 34 C 9 34.552 9.448 35 10 35 L 12 35 C 12.552 35 13 34.552 13 34 L 13 32 C 13 31.448 12.552 31 12 31 L 10 31 z M 17 31 C 16.448 31 16 31.448 16 32 L 16 34 C 16 34.552 16.448 35 17 35 L 19 35 C 19.552 35 20 34.552 20 34 L 20 32 C 20 31.448 19.552 31 19 31 L 17 31 z M 30 31 C 29.448 31 29 31.448 29 32 L 29 34 C 29 34.552 29.448 35 30 35 L 32 35 C 32.552 35 33 34.552 33 34 L 33 32 C 33 31.448 32.552 31 32 31 L 30 31 z M 37 31 C 36.448 31 36 31.448 36 32 L 36 34 C 36 34.552 36.448 35 37 35 L 39 35 C 39.552 35 40 34.552 40 34 L 40 32 C 40 31.448 39.552 31 39 31 L 37 31 z M 10 38 C 9.448 38 9 38.448 9 39 L 9 41 C 9 41.552 9.448 42 10 42 L 12 42 C 12.552 42 13 41.552 13 41 L 13 39 C 13 38.448 12.552 38 12 38 L 10 38 z M 17 38 C 16.448 38 16 38.448 16 39 L 16 41 C 16 41.552 16.448 42 17 42 L 19 42 C 19.552 42 20 41.552 20 41 L 20 39 C 20 38.448 19.552 38 19 38 L 17 38 z M 30 38 C 29.448 38 29 38.448 29 39 L 29 41 C 29 41.552 29.448 42 30 42 L 32 42 C 32.552 42 33 41.552 33 41 L 33 39 C 33 38.448 32.552 38 32 38 L 30 38 z M 37 38 C 36.448 38 36 38.448 36 39 L 36 41 C 36 41.552 36.448 42 37 42 L 39 42 C 39.552 42 40 41.552 40 41 L 40 39 C 40 38.448 39.552 38 39 38 L 37 38 z"></path></svg>