<svg xmlns="http://www.w3.org/2000/svg" viewBox="0 0 50 50"><path d="M 25 1 C 19.826258 1 15.553148 4.9577095 15.048828 10 C 14.003472 9.995111 13.160468 9.9241417 12.310547 10.390625 C 11.871842 10.63141 11.502031 11.070523 11.318359 11.554688 C 11.134688 12.038851 11.082031 12.557113 11.082031 13.167969 A 1.0001 1.0001 0 0 0 11.189453 13.617188 C 11.664066 14.560346 11.833149 15.513446 11.792969 16.095703 C 11.776679 16.33184 11.728236 16.437129 11.697266 16.507812 C 10.419582 16.096917 9.104111 16.201936 8.0820312 16.560547 C 7.4900056 16.76827 6.9908899 17.021252 6.59375 17.324219 C 6.3951801 17.475702 6.2172596 17.627567 6.0527344 17.898438 C 5.9704714 18.033873 5.8838519 18.209173 5.8632812 18.460938 C 5.8594912 18.507268 5.9047631 18.558778 5.9082031 18.609375 C 5.9011631 18.626745 5.9073859 18.612174 5.8867188 18.652344 C 5.8040454 18.81313 5.6239885 19.10248 5.390625 19.443359 C 4.923898 20.125118 4.2408367 21.036404 3.5605469 21.966797 C 2.880257 22.89719 2.202589 23.843691 1.7128906 24.669922 C 1.4680414 25.083037 1.2689389 25.458805 1.1347656 25.847656 C 1.0005924 26.236507 0.80015666 26.7639 1.2617188 27.375 A 1.0001 1.0001 0 0 0 1.6757812 27.697266 C 3.5958635 28.491807 4.6003728 29.335834 5.1640625 30.123047 C 5.7277522 30.91026 5.8963563 31.682699 5.9785156 32.533203 C 6.0606746 33.383707 6.0040396 34.287372 6.296875 35.244141 C 6.5823799 36.176958 7.3821228 37.073542 8.6386719 37.492188 C 8.7841798 37.553627 8.9406109 37.713521 9.0859375 38.109375 C 9.2312641 38.505229 9.3182293 39.076316 9.34375 39.644531 C 9.394791 40.780961 9.2265625 41.863281 9.2265625 41.863281 A 1.0001 1.0001 0 0 0 9.484375 42.703125 C 9.484375 42.703125 10.421732 43.7038 11.445312 44.662109 C 11.957104 45.141264 12.485214 45.610038 12.976562 45.964844 C 13.222238 46.142247 13.450329 46.293967 13.730469 46.412109 C 13.870539 46.471179 14.025539 46.525859 14.246094 46.542969 C 14.466649 46.560079 14.801273 46.519749 15.082031 46.298828 C 14.774616 46.540575 14.832438 46.402324 15.037109 46.410156 C 15.242417 46.418056 15.579602 46.460696 15.974609 46.535156 C 16.764624 46.684077 17.800643 46.948018 18.830078 47.216797 C 19.859514 47.485576 20.881151 47.758598 21.708984 47.931641 C 22.122901 48.018161 22.481501 48.083451 22.822266 48.103516 C 22.992648 48.113546 23.157096 48.117442 23.371094 48.076172 C 23.585091 48.034902 23.956219 47.942165 24.203125 47.503906 A 1.0001 1.0001 0 0 0 24.203125 47.501953 C 24.433163 47.091824 24.795041 46.311082 25.316406 45.464844 C 25.80307 44.67493 26.420558 43.984129 26.824219 43.712891 C 26.861729 43.721591 26.868656 43.718792 26.916016 43.732422 C 27.194808 43.812412 27.621215 43.975294 28.117188 44.191406 C 29.109133 44.623631 30.39705 45.270873 31.6875 45.945312 C 32.97795 46.619752 34.274541 47.32147 35.320312 47.873047 C 35.843199 48.148835 36.302031 48.385864 36.675781 48.568359 C 37.049532 48.750854 37.241738 48.872531 37.632812 48.960938 C 38.464213 49.148828 39.009488 48.809706 39.585938 48.482422 C 40.162386 48.155138 40.742574 47.724511 41.292969 47.283203 C 41.843364 46.841895 42.35796 46.390159 42.759766 46.029297 C 43.161571 45.668435 43.533018 45.337662 43.490234 45.371094 C 43.739011 45.176766 43.869949 44.861639 43.896484 44.652344 C 43.923014 44.443049 43.894087 44.306862 43.867188 44.197266 C 43.813378 43.978072 43.743707 43.846453 43.669922 43.705078 C 43.522352 43.422328 43.340113 43.141386 43.150391 42.84375 C 42.806725 42.30461 42.490679 41.701195 42.414062 41.515625 C 42.414062 41.515625 42.414062 41.513672 42.414062 41.513672 C 42.424464 41.440595 42.443146 41.288026 42.505859 41.123047 C 42.631879 40.791526 42.846939 40.327672 43.117188 39.798828 C 43.657683 38.741141 44.419058 37.410963 45.177734 36.099609 C 45.936411 34.788256 46.691663 33.496535 47.240234 32.46875 C 47.51452 31.954858 47.737296 31.513252 47.892578 31.128906 C 47.970218 30.936733 48.03246 30.764429 48.074219 30.552734 C 48.115979 30.34104 48.263289 30.000236 47.841797 29.501953 A 1.0001 1.0001 0 0 0 47.496094 29.240234 C 46.088281 28.592472 45.238287 26.884672 44.806641 25.158203 C 44.590818 24.294969 44.479786 23.454511 44.427734 22.818359 C 44.405704 22.549147 44.397928 22.343054 44.392578 22.162109 C 44.413338 22.151539 44.41509 22.149632 44.4375 22.138672 C 44.744543 21.988507 45.201377 21.79789 45.666016 21.607422 C 46.130654 21.416953 46.603776 21.226794 46.994141 21.050781 C 47.189323 20.962771 47.361178 20.880129 47.527344 20.783203 C 47.610424 20.734743 47.692267 20.684893 47.792969 20.601562 C 47.893431 20.518432 48.058586 20.435391 48.173828 20.041016 L 48.173828 20.039062 C 48.755415 18.045782 49.078618 16.574888 48.986328 15.316406 C 48.897398 14.103674 48.171757 13.073344 47.126953 12.583984 C 46.527865 12.157541 45.850525 12.067287 45.183594 12.085938 C 44.459175 12.106198 43.697315 12.243398 42.935547 12.412109 C 41.628468 12.701593 40.469722 13.01097 39.693359 13.148438 L 37.878906 10.443359 A 1.0001 1.0001 0 0 0 37.048828 10 L 34.949219 10 C 34.444947 4.9578516 30.174546 1 25 1 z M 25 3 C 29.431507 3 33 6.5714173 33 11 C 33 13.570964 30.873969 17.825203 28.660156 21.253906 C 26.833609 24.082822 25.589662 25.56995 25.005859 26.294922 C 24.424516 25.561175 23.172597 24.038929 21.341797 21.183594 C 19.126317 17.728307 17 13.457342 17 11 C 17 6.5715514 20.569602 3 25 3 z M 25 7 C 22.802706 7 21 8.8027056 21 11 C 21 13.197294 22.802706 15 25 15 C 27.197294 15 29 13.197294 29 11 C 29 8.8027056 27.197294 7 25 7 z M 25 9 C 26.116414 9 27 9.8835859 27 11 C 27 12.116414 26.116414 13 25 13 C 23.883586 13 23 12.116414 23 11 C 23 9.8835859 23.883586 9 25 9 z M 34.935547 12 L 36.515625 12 L 38.408203 14.822266 A 1.0001 1.0001 0 0 0 39.322266 15.261719 C 40.486781 15.165259 41.961177 14.677061 43.369141 14.365234 C 44.073123 14.209321 44.743215 14.099835 45.240234 14.085938 C 45.737253 14.072038 46.000011 14.190817 45.996094 14.1875 A 1.0001 1.0001 0 0 0 46.259766 14.347656 C 46.83863 14.58845 46.936763 14.707128 46.992188 15.462891 C 47.043168 16.158052 46.779156 17.48042 46.3125 19.158203 C 46.26003 19.183713 46.2379 19.196793 46.171875 19.226562 C 45.845052 19.373925 45.378361 19.562328 44.90625 19.755859 C 44.434139 19.949391 43.957739 20.146587 43.558594 20.341797 C 43.359021 20.439407 43.182208 20.532287 43.003906 20.654297 C 42.914756 20.715307 42.82339 20.781933 42.716797 20.894531 C 42.610204 21.00713 42.446175 21.174318 42.400391 21.546875 C 42.370181 21.78733 42.384112 21.850663 42.388672 22.082031 C 42.393272 22.315932 42.406047 22.621826 42.435547 22.982422 C 42.494557 23.703614 42.616761 24.642891 42.867188 25.644531 C 43.307497 27.405656 44.199437 29.391234 45.943359 30.570312 C 45.83148 30.82366 45.691829 31.124027 45.476562 31.527344 C 44.959854 32.495434 44.208714 33.783463 43.447266 35.099609 C 42.685817 36.415756 41.912971 37.759484 41.335938 38.888672 C 41.047419 39.453266 40.808047 39.961396 40.636719 40.412109 C 40.465391 40.862823 40.270637 41.170175 40.410156 41.830078 A 1.0001 1.0001 0 0 0 40.410156 41.832031 C 40.592313 42.690253 41.082836 43.323694 41.462891 43.919922 C 41.564708 44.079652 41.617013 44.172508 41.695312 44.300781 C 41.600532 44.388241 41.549569 44.428087 41.423828 44.541016 C 41.035633 44.889654 40.547074 45.318464 40.042969 45.722656 C 39.538864 46.126849 39.013707 46.505971 38.597656 46.742188 C 38.290217 46.916738 38.030501 46.951594 38.005859 46.978516 C 38.027501 46.975766 37.84585 46.914603 37.552734 46.771484 C 37.215395 46.606768 36.767051 46.375196 36.251953 46.103516 C 35.221757 45.560155 33.920706 44.855186 32.613281 44.171875 C 31.305857 43.488564 29.996289 42.828135 28.916016 42.357422 C 28.375879 42.122066 27.896281 41.93377 27.466797 41.810547 C 27.252055 41.748937 27.052214 41.702023 26.830078 41.681641 C 26.607942 41.661261 26.347826 41.632731 25.982422 41.830078 C 24.906211 42.411378 24.205666 43.454503 23.613281 44.416016 C 23.148904 45.169756 22.901089 45.691256 22.708984 46.068359 C 22.543969 46.047349 22.382713 46.029709 22.119141 45.974609 C 21.384256 45.820996 20.371376 45.553549 19.335938 45.283203 C 18.300497 45.012857 17.242157 44.739298 16.345703 44.570312 C 15.897476 44.485822 15.491501 44.424631 15.113281 44.410156 C 14.930272 44.403156 14.696715 44.539337 14.5 44.564453 C 14.4665 44.549533 14.323823 44.470393 14.148438 44.34375 C 13.790318 44.08515 13.292584 43.652595 12.8125 43.203125 C 11.999972 42.442411 11.451323 41.854044 11.232422 41.623047 C 11.282942 41.249733 11.390887 40.647672 11.341797 39.554688 C 11.310697 38.862153 11.220595 38.121881 10.962891 37.419922 C 10.705186 36.717963 10.232008 35.994949 9.4160156 35.650391 A 1.0001 1.0001 0 0 0 9.3203125 35.615234 C 8.4623672 35.351402 8.3553362 35.136372 8.2089844 34.658203 C 8.0626326 34.180035 8.0663406 33.352043 7.96875 32.341797 C 7.8711594 31.331551 7.6200134 30.114756 6.7910156 28.957031 C 6.0728113 27.954033 4.8456731 27.04914 3.15625 26.238281 C 3.231147 26.075107 3.2925555 25.927416 3.4335938 25.689453 C 3.8498954 24.987059 4.5055711 24.063092 5.1757812 23.146484 C 5.8459914 22.229877 6.5307427 21.319586 7.0410156 20.574219 C 7.2961521 20.201535 7.5069356 19.875796 7.6660156 19.566406 C 7.7455556 19.411711 7.8147305 19.266276 7.8671875 19.060547 C 7.8753775 19.028417 7.8268905 18.93881 7.8359375 18.898438 C 8.0000939 18.77769 8.3349341 18.590843 8.7441406 18.447266 C 9.5893393 18.150712 10.677776 18.060957 11.412109 18.425781 A 1.0001 1.0001 0 0 0 11.857422 18.529297 C 12.464049 18.529297 13.045606 18.152995 13.341797 17.705078 C 13.637988 17.257161 13.752654 16.760043 13.789062 16.232422 C 13.852533 15.312681 13.543465 14.238962 13.082031 13.167969 C 13.082031 12.690324 13.139611 12.391867 13.1875 12.265625 C 13.23539 12.139383 13.220887 12.173375 13.273438 12.144531 C 13.375542 12.088485 14.026733 12.006653 15.068359 12.001953 C 15.453967 15.262677 17.589102 19.034724 19.658203 22.261719 C 21.942724 25.824682 24.224609 28.630859 24.224609 28.630859 A 1.0001 1.0001 0 0 0 25.769531 28.636719 C 25.769531 28.636719 28.053656 25.878687 30.339844 22.337891 C 32.415375 19.123316 34.557345 15.329321 34.935547 12 z M 11.857422 16.529297 L 12.042969 16.574219 C 11.974294 16.567418 11.906347 16.561728 11.837891 16.537109 C 11.845791 16.535109 11.851142 16.529297 11.857422 16.529297 z M 7.84375 18.509766 C 7.846719 18.547161 7.8600847 18.590457 7.8574219 18.623047 C 7.8507019 18.705307 7.829807 18.720257 7.8125 18.769531 C 7.8248646 18.685968 7.8385287 18.599295 7.84375 18.509766 z M 17.5 27 A 2.5 2.5 0 0 0 15 29.5 A 2.5 2.5 0 0 0 17.5 32 A 2.5 2.5 0 0 0 20 29.5 A 2.5 2.5 0 0 0 17.5 27 z M 14.400391 44.548828 C 14.491861 44.555928 14.499051 44.567126 14.494141 44.566406 C 14.362357 44.583834 14.24373 44.566286 14.107422 44.599609 C 14.22861 44.561186 14.338944 44.544061 14.400391 44.548828 z M 13.863281 44.71875 C 13.857156 44.723353 13.851931 44.723606 13.845703 44.728516 L 13.845703 44.726562 C 13.851448 44.722042 13.857497 44.723056 13.863281 44.71875 z"></path></svg>