<svg xmlns="http://www.w3.org/2000/svg" viewBox="0 0 50 50"><path d="M 18.6875 0 C 17.214844 0 15.960938 0.78125 14.96875 1.90625 C 13.976563 3.03125 13.167969 4.515625 12.46875 6.1875 C 11.140625 9.359375 10.195313 13.214844 9.375 16.59375 C 6.816406 17.179688 4.632813 17.855469 3.03125 18.71875 C 2.160156 19.1875 1.445313 19.699219 0.90625 20.3125 C 0.367188 20.925781 0 21.6875 0 22.5 C 0 23.894531 0.992188 25.007813 2.34375 25.875 C 3.664063 26.722656 5.433594 27.4375 7.59375 28.03125 C 7.476563 28.421875 7.40625 28.835938 7.40625 29.3125 C 7.40625 29.917969 7.523438 30.535156 7.71875 31.15625 C 6.078125 32.054688 3.082031 34.007813 0.1875 38 C 0.03125 38.21875 -0.03125 38.492188 0.015625 38.753906 C 0.0625 39.019531 0.214844 39.253906 0.4375 39.40625 L 9.375 45.71875 L 7.21875 48.375 C 6.875 48.804688 6.941406 49.4375 7.375 49.78125 C 7.804688 50.125 8.4375 50.058594 8.78125 49.625 L 11.59375 46.125 C 11.761719 45.90625 11.835938 45.632813 11.792969 45.359375 C 11.753906 45.085938 11.601563 44.84375 11.375 44.6875 L 2.5 38.4375 C 4.878906 35.449219 7.175781 33.75 8.53125 32.96875 C 9.097656 33.898438 9.914063 34.628906 10.9375 35 C 12.277344 38.339844 13.902344 41.933594 16.09375 44.78125 C 18.359375 47.726563 21.308594 49.945313 25 50 C 28.648438 50.054688 31.527344 47.886719 33.78125 44.9375 C 35.964844 42.082031 37.632813 38.429688 39.0625 34.90625 C 40.066406 34.558594 40.90625 33.882813 41.46875 33 C 42.824219 33.785156 45.128906 35.460938 47.5 38.4375 L 38.625 44.6875 C 38.398438 44.84375 38.246094 45.085938 38.207031 45.359375 C 38.164063 45.632813 38.238281 45.90625 38.40625 46.125 L 41.21875 49.625 C 41.5625 50.058594 42.195313 50.125 42.625 49.78125 C 43.058594 49.4375 43.125 48.804688 42.78125 48.375 L 40.625 45.71875 L 49.5625 39.40625 C 49.785156 39.253906 49.9375 39.019531 49.984375 38.753906 C 50.03125 38.492188 49.96875 38.21875 49.8125 38 C 46.917969 34.007813 43.921875 32.054688 42.28125 31.15625 C 42.472656 30.5 42.59375 29.824219 42.59375 29.1875 C 42.59375 28.738281 42.53125 28.347656 42.4375 28 C 44.578125 27.40625 46.34375 26.71875 47.65625 25.875 C 49.007813 25.007813 50 23.894531 50 22.5 C 50 21.6875 49.632813 20.925781 49.09375 20.3125 C 48.554688 19.699219 47.839844 19.1875 46.96875 18.71875 C 45.367188 17.855469 43.183594 17.179688 40.625 16.59375 C 39.71875 13.046875 38.742188 9.160156 37.4375 6.03125 C 36.75 4.386719 35.980469 2.9375 35 1.84375 C 34.019531 0.75 32.769531 0 31.3125 0 C 29.796875 0 28.652344 0.625 27.71875 1.125 C 26.785156 1.625 26.042969 2 25 2 C 23.957031 2 23.214844 1.625 22.28125 1.125 C 21.347656 0.625 20.203125 0 18.6875 0 Z M 18.6875 2 C 19.671875 2 20.402344 2.375 21.34375 2.875 C 22.285156 3.375 23.445313 4 25 4 C 26.554688 4 27.714844 3.375 28.65625 2.875 C 29.597656 2.375 30.328125 2 31.3125 2 C 32.105469 2 32.761719 2.363281 33.5 3.1875 C 34.238281 4.011719 34.957031 5.285156 35.59375 6.8125 C 36.351563 8.632813 37.039063 10.8125 37.65625 13.0625 C 37.601563 13.207031 37.449219 13.410156 37.0625 13.6875 C 36.515625 14.078125 35.574219 14.496094 34.40625 14.84375 C 32.066406 15.539063 28.722656 16 25 16 C 21.277344 16 17.9375 15.539063 15.625 14.84375 C 14.46875 14.496094 13.570313 14.078125 13.03125 13.6875 C 12.492188 13.296875 12.40625 13.046875 12.40625 12.90625 L 12.34375 12.90625 C 12.917969 10.804688 13.574219 8.734375 14.3125 6.96875 C 14.964844 5.414063 15.710938 4.109375 16.46875 3.25 C 17.226563 2.390625 17.910156 2 18.6875 2 Z M 11.75 15.1875 C 11.796875 15.222656 11.828125 15.277344 11.875 15.3125 C 12.699219 15.90625 13.769531 16.390625 15.0625 16.78125 C 17.648438 17.558594 21.121094 18 25 18 C 28.878906 18 32.390625 17.558594 35 16.78125 C 36.304688 16.390625 37.386719 15.90625 38.21875 15.3125 C 38.230469 15.304688 38.238281 15.289063 38.25 15.28125 C 38.457031 16.074219 38.644531 16.882813 38.84375 17.65625 L 38.875 17.75 C 38.800781 17.914063 38.601563 18.160156 38.15625 18.46875 C 37.539063 18.898438 36.535156 19.371094 35.25 19.75 C 32.679688 20.511719 29.019531 21 25 21 C 20.980469 21 17.320313 20.511719 14.75 19.75 C 13.464844 19.371094 12.460938 18.898438 11.84375 18.46875 C 11.378906 18.148438 11.191406 17.882813 11.125 17.71875 L 11.15625 17.625 C 11.347656 16.839844 11.542969 16.011719 11.75 15.1875 Z M 9.34375 18.625 C 9.632813 19.214844 10.136719 19.722656 10.71875 20.125 C 11.613281 20.746094 12.773438 21.238281 14.1875 21.65625 C 17.019531 22.496094 20.820313 23 25 23 C 29.179688 23 32.980469 22.496094 35.8125 21.65625 C 37.226563 21.238281 38.386719 20.746094 39.28125 20.125 C 39.863281 19.722656 40.367188 19.214844 40.65625 18.625 C 42.90625 19.167969 44.765625 19.820313 46.03125 20.5 C 46.761719 20.894531 47.28125 21.300781 47.59375 21.65625 C 47.90625 22.011719 48 22.261719 48 22.5 C 48 22.90625 47.664063 23.5 46.59375 24.1875 C 45.523438 24.875 43.824219 25.554688 41.71875 26.125 C 37.503906 27.265625 31.578125 28 25 28 C 18.421875 28 12.496094 27.265625 8.28125 26.125 C 6.175781 25.554688 4.476563 24.875 3.40625 24.1875 C 2.335938 23.5 2 22.90625 2 22.5 C 2 22.261719 2.09375 22.011719 2.40625 21.65625 C 2.71875 21.300781 3.238281 20.894531 3.96875 20.5 C 5.234375 19.820313 7.09375 19.167969 9.34375 18.625 Z M 9.53125 28.5 C 10.90625 28.804688 12.410156 29.09375 14 29.3125 L 14 29.59375 C 14 30.867188 14.414063 32.164063 15.25 33.1875 C 16.082031 34.203125 17.378906 34.929688 18.9375 35 C 18.949219 35 18.957031 35 18.96875 35 C 20.085938 35.054688 21.285156 34.824219 22.28125 34.125 C 23.285156 33.417969 24 32.164063 24 30.59375 L 24 30 C 24.332031 30.003906 24.664063 30 25 30 C 25.335938 30 25.667969 30.003906 26 30 L 26 30.59375 C 26 32.164063 26.714844 33.417969 27.71875 34.125 C 28.714844 34.824219 29.914063 35.054688 31.03125 35 C 31.042969 35 31.050781 35 31.0625 35 C 32.621094 34.929688 33.917969 34.203125 34.75 33.1875 C 35.585938 32.164063 36 30.867188 36 29.59375 L 36 29.3125 C 37.613281 29.089844 39.140625 28.8125 40.53125 28.5 C 40.578125 28.664063 40.59375 28.867188 40.59375 29.1875 C 40.59375 29.953125 40.304688 31.027344 39.8125 31.84375 C 39.320313 32.660156 38.679688 33.167969 38.1875 33.21875 L 37.59375 33.28125 L 37.375 33.8125 C 35.9375 37.382813 34.265625 41.042969 32.21875 43.71875 C 30.171875 46.394531 27.851563 48.042969 25 48 C 22.089844 47.957031 19.746094 46.242188 17.6875 43.5625 C 15.628906 40.882813 13.960938 37.300781 12.625 33.9375 L 12.40625 33.375 L 11.8125 33.3125 C 11.410156 33.269531 10.726563 32.746094 10.21875 31.90625 C 9.710938 31.066406 9.40625 30 9.40625 29.3125 C 9.40625 28.929688 9.472656 28.675781 9.53125 28.5 Z M 16 29.53125 C 17.898438 29.734375 19.902344 29.867188 22 29.9375 L 22 30.59375 C 22 31.625 21.644531 32.132813 21.125 32.5 C 20.605469 32.867188 19.835938 33.039063 19.0625 33 L 19.03125 33 C 18.003906 32.960938 17.324219 32.53125 16.8125 31.90625 C 16.300781 31.28125 16 30.421875 16 29.59375 Z M 34 29.53125 L 34 29.59375 C 34 30.421875 33.699219 31.28125 33.1875 31.90625 C 32.675781 32.53125 31.996094 32.960938 30.96875 33 L 30.9375 33 C 30.164063 33.039063 29.394531 32.867188 28.875 32.5 C 28.355469 32.132813 28 31.625 28 30.59375 L 28 29.9375 C 30.097656 29.867188 32.101563 29.734375 34 29.53125 Z"></path></svg>