<svg xmlns="http://www.w3.org/2000/svg" viewBox="0 0 52 176">
	<g>
		<g>
			<path d="M36.5,6A9.51,9.51,0,0,1,46,15.5v21A9.51,9.51,0,0,1,36.5,46h-21A9.51,9.51,0,0,1,6,36.5v-21A9.51,9.51,0,0,1,15.5,6h21m0-6h-21A15.5,15.5,0,0,0,0,15.5v21A15.5,15.5,0,0,0,15.5,52h21A15.5,15.5,0,0,0,52,36.5v-21A15.5,15.5,0,0,0,36.5,0Z"/>
			<path d="M36.5,68A9.51,9.51,0,0,1,46,77.5v21a9.51,9.51,0,0,1-9.5,9.5h-21A9.51,9.51,0,0,1,6,98.5v-21A9.51,9.51,0,0,1,15.5,68h21m0-6h-21A15.5,15.5,0,0,0,0,77.5v21A15.5,15.5,0,0,0,15.5,114h21A15.5,15.5,0,0,0,52,98.5v-21A15.5,15.5,0,0,0,36.5,62Z"/>
			<path d="M36.5,130a9.51,9.51,0,0,1,9.5,9.5v21a9.51,9.51,0,0,1-9.5,9.5h-21A9.51,9.51,0,0,1,6,160.5v-21a9.51,9.51,0,0,1,9.5-9.5h21m0-6h-21A15.5,15.5,0,0,0,0,139.5v21A15.5,15.5,0,0,0,15.5,176h21A15.5,15.5,0,0,0,52,160.5v-21A15.5,15.5,0,0,0,36.5,124Z"/>
		</g>
	</g>
</svg>