<svg xmlns="http://www.w3.org/2000/svg" viewBox="0 0 165 176"><g id="Layer_2" data-name="Layer 2"><g id="Layer_1-2" data-name="Layer 1"><path d="M36.5,6A9.51,9.51,0,0,1,46,15.5v21A9.51,9.51,0,0,1,36.5,46h-21A9.51,9.51,0,0,1,6,36.5v-21A9.51,9.51,0,0,1,15.5,6h21m0-6h-21A15.5,15.5,0,0,0,0,15.5v21A15.5,15.5,0,0,0,15.5,52h21A15.5,15.5,0,0,0,52,36.5v-21A15.5,15.5,0,0,0,36.5,0Z"/><rect x="68" y="21" width="95" height="10" rx="3.27"/><path d="M159.73,23A1.27,1.27,0,0,1,161,24.27v3.46A1.27,1.27,0,0,1,159.73,29H71.27A1.27,1.27,0,0,1,70,27.73V24.27A1.27,1.27,0,0,1,71.27,23h88.46m0-4H71.27A5.27,5.27,0,0,0,66,24.27v3.46A5.27,5.27,0,0,0,71.27,33h88.46A5.27,5.27,0,0,0,165,27.73V24.27A5.27,5.27,0,0,0,159.73,19Z"/><path d="M36.5,68A9.51,9.51,0,0,1,46,77.5v21a9.51,9.51,0,0,1-9.5,9.5h-21A9.51,9.51,0,0,1,6,98.5v-21A9.51,9.51,0,0,1,15.5,68h21m0-6h-21A15.5,15.5,0,0,0,0,77.5v21A15.5,15.5,0,0,0,15.5,114h21A15.5,15.5,0,0,0,52,98.5v-21A15.5,15.5,0,0,0,36.5,62Z"/><rect x="68" y="83" width="95" height="10" rx="3.27"/><path d="M159.73,85A1.27,1.27,0,0,1,161,86.27v3.46A1.27,1.27,0,0,1,159.73,91H71.27A1.27,1.27,0,0,1,70,89.73V86.27A1.27,1.27,0,0,1,71.27,85h88.46m0-4H71.27A5.27,5.27,0,0,0,66,86.27v3.46A5.27,5.27,0,0,0,71.27,95h88.46A5.27,5.27,0,0,0,165,89.73V86.27A5.27,5.27,0,0,0,159.73,81Z"/><path d="M36.5,130a9.51,9.51,0,0,1,9.5,9.5v21a9.51,9.51,0,0,1-9.5,9.5h-21A9.51,9.51,0,0,1,6,160.5v-21a9.51,9.51,0,0,1,9.5-9.5h21m0-6h-21A15.5,15.5,0,0,0,0,139.5v21A15.5,15.5,0,0,0,15.5,176h21A15.5,15.5,0,0,0,52,160.5v-21A15.5,15.5,0,0,0,36.5,124Z"/><rect x="68" y="145" width="95" height="10" rx="3.27"/><path d="M159.73,147a1.27,1.27,0,0,1,1.27,1.27v3.46a1.27,1.27,0,0,1-1.27,1.27H71.27A1.27,1.27,0,0,1,70,151.73v-3.46A1.27,1.27,0,0,1,71.27,147h88.46m0-4H71.27A5.27,5.27,0,0,0,66,148.27v3.46A5.27,5.27,0,0,0,71.27,157h88.46a5.27,5.27,0,0,0,5.27-5.27v-3.46a5.27,5.27,0,0,0-5.27-5.27Z"/></g></g></svg>